<?xml version="1.0" encoding="iso-8859-1"?>
<!-- Generator: Adobe Illustrator 16.0.0, SVG Export Plug-In . SVG Version: 6.00 Build 0)  -->
<!DOCTYPE svg PUBLIC "-//W3C//DTD SVG 1.1//EN" "http://www.w3.org/Graphics/SVG/1.1/DTD/svg11.dtd">
<svg xmlns="http://www.w3.org/2000/svg" xmlns:xlink="http://www.w3.org/1999/xlink" version="1.1" id="Capa_1" x="0px" y="0px" width="512px" height="512px" viewBox="0 0 472.936 472.936" style="enable-background:new 0 0 472.936 472.936;" xml:space="preserve">
<g>
	<path d="M358.887,110.903c-1.109-0.793-3.658-2.601-6.301-4.45l38.518-36.329l-58.438-27.361l-73.434,22.793l0.126-0.441   l24.843-26.079L271.934,0l-52.271,55.1l-2.577,11.94l-76.817-24.276L81.831,70.125l38.519,36.329   c-2.643,1.85-5.191,3.657-6.301,4.45c-31.111,22.237-46.236,57.397-46.236,107.49c0,2.692,0.087,5.373,0.213,8.05   c4.156-6.784,10.411-11.105,17.408-11.105c12.513,0,22.655,13.806,22.655,30.837c0,17.03-10.143,30.836-22.655,30.836   c-3.068,0-5.994-0.834-8.662-2.34c8.095,26.057,21.064,50.9,36.383,73.797c-0.021-0.531-0.031-1.066-0.031-1.604   c0-17.03,10.144-30.836,22.656-30.836s22.654,13.806,22.654,30.836c0,17.031-10.143,30.837-22.654,30.837   c-0.377,0-0.753-0.015-1.124-0.04c27.362,34.073,101.811,95.273,101.811,95.273s74.45-61.2,101.813-95.274   c-0.371,0.025-0.746,0.04-1.123,0.04c-12.514,0-22.654-13.807-22.654-30.838c0-17.029,10.143-30.836,22.654-30.836   s22.654,13.807,22.654,30.836c0,0.537-0.01,1.072-0.029,1.604c15.316-22.896,28.287-47.741,36.383-73.797   c-2.668,1.506-5.596,2.34-8.662,2.34c-12.514,0-22.656-13.806-22.656-30.836c0-17.031,10.145-30.837,22.656-30.837   c6.996,0,13.252,4.321,17.408,11.105c0.125-2.677,0.213-5.357,0.213-8.05C405.123,168.3,389.998,133.14,358.887,110.903z    M135.777,176.321c-12.513,0-22.656-13.806-22.656-30.837c0-17.03,10.144-30.836,22.656-30.836s22.654,13.806,22.654,30.836   C158.431,162.515,148.288,176.321,135.777,176.321z M186.121,277.01c-12.513,0-22.655-13.807-22.655-30.836   c0-17.031,10.143-30.837,22.655-30.837c12.512,0,22.655,13.806,22.655,30.837C208.777,263.203,198.634,277.01,186.121,277.01z    M236.466,377.7c-12.513,0-22.655-13.807-22.655-30.837s10.143-30.836,22.655-30.836s22.655,13.806,22.655,30.836   C259.121,363.895,248.979,377.7,236.466,377.7z M236.466,176.321c-12.513,0-22.655-13.806-22.655-30.837   c0-17.03,10.143-30.836,22.655-30.836s22.655,13.806,22.655,30.836C259.121,162.515,248.979,176.321,236.466,176.321z    M286.812,277.01c-12.513,0-22.655-13.807-22.655-30.836c0-17.031,10.143-30.837,22.655-30.837s22.655,13.806,22.655,30.837   C309.467,263.203,299.324,277.01,286.812,277.01z M337.156,176.321c-12.514,0-22.654-13.806-22.654-30.837   c0-17.03,10.143-30.836,22.654-30.836s22.654,13.806,22.654,30.836C359.812,162.515,349.668,176.321,337.156,176.321z" fill="#e3e9ea"/>
</g>
<g>
</g>
<g>
</g>
<g>
</g>
<g>
</g>
<g>
</g>
<g>
</g>
<g>
</g>
<g>
</g>
<g>
</g>
<g>
</g>
<g>
</g>
<g>
</g>
<g>
</g>
<g>
</g>
<g>
</g>
</svg>
